<svg width="46" height="48" viewBox="0 0 46 48" fill="none" xmlns="http://www.w3.org/2000/svg">
<path d="M31.3044 45.9694V37.8929C31.3826 36.8977 31.2482 35.8973 30.9099 34.9582C30.5717 34.019 30.0374 33.1626 29.3426 32.4459C35.8957 31.7155 42.7826 29.232 42.7826 17.8372C42.7821 14.9235 41.6613 12.1215 39.6522 10.0111C40.6035 7.46194 40.5363 4.64422 39.4644 2.14332C39.4644 2.14332 37.0017 1.41288 31.3044 5.23201C26.5211 3.93564 21.4789 3.93564 16.6957 5.23201C10.9983 1.41288 8.53566 2.14332 8.53566 2.14332C7.46374 4.64422 7.39648 7.46194 8.34783 10.0111C6.32375 12.1371 5.20179 14.9645 5.21739 17.8998C5.21739 29.2111 12.1043 31.6946 18.6574 32.5085C17.9708 33.218 17.4412 34.0642 17.1033 34.9918C16.7653 35.9195 16.6264 36.908 16.6957 37.8929V45.9694M16.6957 39.7085C6.26087 42.839 6.26087 34.4911 2.08696 33.4477L16.6957 39.7085Z" stroke="white" stroke-width="2" stroke-linecap="round" stroke-linejoin="round"/>
</svg>
