<svg width="115" height="110" viewBox="0 0 115 110" fill="none" xmlns="http://www.w3.org/2000/svg">
<g filter="url(#filter0_d_1_61)">
<path d="M55.4043 27.3613C40.5369 27.3613 28.5447 38.8083 28.5447 53C28.5447 67.1917 40.5369 78.6387 55.4043 78.6387C70.2718 78.6387 82.264 67.1917 82.264 53C82.264 38.8083 70.2718 27.3613 55.4043 27.3613ZM55.4043 69.6685C45.7966 69.6685 37.9421 62.1934 37.9421 53C37.9421 43.8067 45.7732 36.3315 55.4043 36.3315C65.0355 36.3315 72.8666 43.8067 72.8666 53C72.8666 62.1934 65.0121 69.6685 55.4043 69.6685ZM89.6276 26.3125C89.6276 29.6373 86.8224 32.2927 83.3627 32.2927C79.8796 32.2927 77.0977 29.615 77.0977 26.3125C77.0977 23.01 79.9029 20.3324 83.3627 20.3324C86.8224 20.3324 89.6276 23.01 89.6276 26.3125ZM107.417 32.3819C107.02 24.3712 105.103 17.2754 98.9548 11.4291C92.8301 5.58284 85.3964 3.7531 77.0042 3.35144C68.3549 2.88285 42.4304 2.88285 33.781 3.35144C25.4122 3.73078 17.9785 5.56053 11.8305 11.4068C5.68246 17.253 3.78896 24.3489 3.36818 32.3596C2.87727 40.6158 2.87727 65.3619 3.36818 73.6181C3.76558 81.6288 5.68246 88.7246 11.8305 94.5709C17.9785 100.417 25.3889 102.247 33.781 102.649C42.4304 103.117 68.3549 103.117 77.0042 102.649C85.3964 102.269 92.8301 100.439 98.9548 94.5709C105.079 88.7246 106.996 81.6288 107.417 73.6181C107.908 65.3619 107.908 40.6381 107.417 32.3819ZM96.2431 82.4767C94.4197 86.8503 90.8899 90.2197 86.2847 91.9825C79.3886 94.5932 63.0251 93.9907 55.4043 93.9907C47.7836 93.9907 31.3966 94.5709 24.5239 91.9825C19.9421 90.242 16.4123 86.8726 14.5655 82.4767C11.8305 75.8941 12.4616 60.2744 12.4616 53C12.4616 45.7257 11.8539 30.0836 14.5655 23.5233C16.3889 19.1497 19.9188 15.7803 24.5239 14.0175C31.42 11.4068 47.7836 12.0093 55.4043 12.0093C63.0251 12.0093 79.412 11.4291 86.2847 14.0175C90.8665 15.758 94.3964 19.1274 96.2431 23.5233C98.9782 30.1059 98.347 45.7257 98.347 53C98.347 60.2744 98.9782 75.9164 96.2431 82.4767Z" fill="#CDD5E0"/>
<path d="M55.4043 26.8613C40.2829 26.8613 28.0447 38.5105 28.0447 53C28.0447 67.4895 40.2829 79.1387 55.4043 79.1387C70.5258 79.1387 82.764 67.4895 82.764 53C82.764 38.5105 70.5258 26.8613 55.4043 26.8613ZM55.4043 69.1685C46.0501 69.1685 38.4421 61.8951 38.4421 53C38.4421 44.1045 46.0272 36.8315 55.4043 36.8315C64.7815 36.8315 72.3666 44.1045 72.3666 53C72.3666 61.8951 64.7586 69.1685 55.4043 69.1685ZM83.3627 32.7927C87.0751 32.7927 90.1276 29.9363 90.1276 26.3125C90.1276 22.7122 87.0763 19.8324 83.3627 19.8324C79.649 19.8324 76.5977 22.7122 76.5977 26.3125C76.5977 29.9116 79.6243 32.7927 83.3627 32.7927ZM107.916 32.3554C107.515 24.2765 105.576 17.0349 99.2993 11.0668C93.0515 5.10333 85.4784 3.25663 77.0297 2.85209C68.3615 2.38265 42.4252 2.38264 33.7562 2.85206C25.3294 3.23429 17.7568 5.0814 11.4859 11.0444C5.2092 17.0131 3.29341 24.2551 2.86896 32.3316C2.37703 40.6085 2.37701 65.3676 2.86892 73.6453C3.27001 81.724 5.20991 88.9653 11.4859 94.9332C17.7567 100.896 25.3058 102.743 33.7555 103.148C42.4237 103.617 68.3602 103.617 77.0292 103.148C85.4788 102.766 93.0524 100.919 99.3004 94.9323C105.552 88.9642 107.492 81.7231 107.916 73.6453C108.408 65.368 108.408 40.6337 107.916 32.3554ZM95.7816 82.2843C94.0135 86.5254 90.5899 89.7987 86.1074 91.515C82.749 92.7863 77.0161 93.2899 71.1014 93.4659C66.8871 93.5913 62.6342 93.5501 59.1528 93.5164C57.7632 93.503 56.4966 93.4907 55.4043 93.4907C54.3333 93.4907 53.0938 93.5021 51.7349 93.5145C48.2369 93.5466 43.9471 93.5859 39.6987 93.4575C33.7815 93.2787 28.0488 92.7753 24.7015 91.5151C20.2441 89.8218 16.8193 86.5495 15.027 82.2844C13.6996 79.0891 13.1721 73.6277 12.9877 67.9815C12.8564 63.9603 12.8994 59.9033 12.9347 56.5805C12.9488 55.2535 12.9616 54.0437 12.9616 53C12.9616 51.9766 12.9498 50.7928 12.9367 49.4951C12.9032 46.1565 12.862 42.0642 12.9964 38.0104C13.1838 32.3613 13.7112 26.8996 15.0273 23.715C16.7956 19.4741 20.2194 16.2009 24.7019 14.4848C28.0604 13.2136 33.7929 12.7101 39.7073 12.5341C43.9215 12.4087 48.1744 12.4499 51.6558 12.4836C53.0454 12.497 54.3121 12.5093 55.4043 12.5093C56.4754 12.5093 57.7148 12.4979 59.0738 12.4855C62.5717 12.4534 66.8615 12.4141 71.1099 12.5425C77.0271 12.7213 82.7598 13.2247 86.1072 14.4849C90.5649 16.1783 93.9899 19.451 95.782 23.7165C97.1091 26.9119 97.6366 32.3728 97.821 38.0186C97.9523 42.0397 97.9092 46.0967 97.8739 49.4195C97.8599 50.7465 97.847 51.9563 97.847 53C97.847 54.0435 97.8598 55.2535 97.8739 56.5809C97.9092 59.9056 97.9523 63.9663 97.821 67.9898C97.6366 73.6395 97.1089 79.1007 95.7816 82.2843Z" stroke="white" stroke-opacity="0.5"/>
</g>
<defs>
<filter id="filter0_d_1_61" x="0" y="0" width="114.785" height="110" filterUnits="userSpaceOnUse" color-interpolation-filters="sRGB">
<feFlood flood-opacity="0" result="BackgroundImageFix"/>
<feColorMatrix in="SourceAlpha" type="matrix" values="0 0 0 0 0 0 0 0 0 0 0 0 0 0 0 0 0 0 127 0" result="hardAlpha"/>
<feOffset dx="2" dy="2"/>
<feGaussianBlur stdDeviation="2"/>
<feColorMatrix type="matrix" values="0 0 0 0 0 0 0 0 0 0 0 0 0 0 0 0 0 0 0.25 0"/>
<feBlend mode="normal" in2="BackgroundImageFix" result="effect1_dropShadow_1_61"/>
<feBlend mode="normal" in="SourceGraphic" in2="effect1_dropShadow_1_61" result="shape"/>
</filter>
</defs>
</svg>
