<svg width="21" height="18" viewBox="0 0 21 18" fill="none" xmlns="http://www.w3.org/2000/svg">
<path d="M4.23607 3.35475C4.00364 3.2296 3.72253 3.23585 3.4959 3.37122C3.26927 3.50658 3.13049 3.75113 3.13049 4.01511V13.5151C3.13049 13.9293 3.46628 14.2651 3.88049 14.2651C4.29471 14.2651 4.63049 13.9293 4.63049 13.5151V5.27077L10.0249 8.17546C10.2469 8.29499 10.5141 8.29499 10.7361 8.17546L16.1305 5.27077V13.5151C16.1305 13.9293 16.4663 14.2651 16.8805 14.2651C17.2947 14.2651 17.6305 13.9293 17.6305 13.5151V4.01511C17.6305 3.75113 17.4917 3.50658 17.2651 3.37122C17.0385 3.23585 16.7573 3.2296 16.5249 3.35475L10.3805 6.66329L4.23607 3.35475Z" fill="white"/>
<path fill-rule="evenodd" clip-rule="evenodd" d="M15.6911 0.236942C12.1577 -0.0789805 8.60326 -0.0789805 5.06992 0.236942L3.55258 0.37261C1.92496 0.518138 0.609891 1.76156 0.373499 3.37848C-0.1245 6.78479 -0.1245 10.2454 0.373499 13.6517C0.609891 15.2687 1.92496 16.5121 3.55258 16.6576L5.06992 16.7933C8.60326 17.1092 12.1577 17.1092 15.6911 16.7933L17.2084 16.6576C18.836 16.5121 20.1511 15.2687 20.3875 13.6517C20.8855 10.2454 20.8855 6.78479 20.3875 3.37848C20.1511 1.76156 18.836 0.518138 17.2084 0.37261L15.6911 0.236942ZM5.20351 1.73098C8.64797 1.42301 12.113 1.42301 15.5575 1.73098L17.0748 1.86665C18.011 1.95035 18.7673 2.6655 18.9033 3.59547C19.3802 6.85788 19.3802 10.1723 18.9033 13.4347C18.7673 14.3647 18.011 15.0799 17.0748 15.1636L15.5575 15.2992C12.113 15.6072 8.64797 15.6072 5.20351 15.2992L3.68616 15.1636C2.75004 15.0799 1.99368 14.3647 1.85772 13.4347C1.38076 10.1723 1.38076 6.85789 1.85772 3.59547C1.99368 2.6655 2.75004 1.95035 3.68616 1.86665L5.20351 1.73098Z" fill="white"/>
</svg>
