<svg width="110" height="110" viewBox="0 0 110 110" fill="none" xmlns="http://www.w3.org/2000/svg">
<g filter="url(#filter0_d_1_23)">
<path d="M25.3839 103H4.65179V36.2351H25.3839V103ZM15.0067 27.1278C8.37723 27.1278 3 21.6366 3 15.007C3 11.8225 4.26499 8.7685 6.51668 6.51676C8.76837 4.26502 11.8223 3 15.0067 3C18.1911 3 21.245 4.26502 23.4967 6.51676C25.7484 8.7685 27.0134 11.8225 27.0134 15.007C27.0134 21.6366 21.6339 27.1278 15.0067 27.1278ZM102.978 103H82.2902V70.4993C82.2902 62.7536 82.1339 52.8203 71.5112 52.8203C60.7321 52.8203 59.0804 61.2357 59.0804 69.9412V103H38.3705V36.2351H58.2545V45.3425H58.5446C61.3125 40.0968 68.0737 34.561 78.1607 34.561C99.1429 34.561 103 48.3782 103 66.3251V103H102.978Z" fill="#CDD5E0"/>
<path d="M25.3839 103.5H25.8839V103V36.2351V35.7351H25.3839H4.65179H4.15179V36.2351V103V103.5H4.65179H25.3839ZM81.7902 103V103.5H82.2902H102.978H103H103.5V103V66.3251C103.5 57.3409 102.54 49.2734 98.8718 43.4466C95.17 37.5667 88.7751 34.061 78.1607 34.061C68.5929 34.061 61.9302 38.9509 58.7545 43.983V36.2351V35.7351H58.2545H38.3705H37.8705V36.2351V103V103.5H38.3705H59.0804H59.5804V103V69.9412C59.5804 65.5976 59.9972 61.43 61.6915 58.3576C62.5321 56.8332 63.6855 55.5824 65.2636 54.7087C66.8446 53.8333 68.8814 53.3203 71.5112 53.3203C74.0871 53.3203 75.983 53.9214 77.3908 54.9035C78.7997 55.8863 79.7624 57.2803 80.4193 58.9393C81.7447 62.2859 81.7902 66.6046 81.7902 70.4993V103ZM2.5 15.007C2.5 21.9066 8.09497 27.6278 15.0067 27.6278C21.9161 27.6278 27.5134 21.9066 27.5134 15.007C27.5134 11.6899 26.1957 8.50872 23.8503 6.16321C21.5048 3.8177 18.3237 2.5 15.0067 2.5C11.6897 2.5 8.50858 3.8177 6.16312 6.16321C3.81766 8.50872 2.5 11.6899 2.5 15.007Z" stroke="white" stroke-opacity="0.5"/>
</g>
<defs>
<filter id="filter0_d_1_23" x="0" y="0" width="110" height="110" filterUnits="userSpaceOnUse" color-interpolation-filters="sRGB">
<feFlood flood-opacity="0" result="BackgroundImageFix"/>
<feColorMatrix in="SourceAlpha" type="matrix" values="0 0 0 0 0 0 0 0 0 0 0 0 0 0 0 0 0 0 127 0" result="hardAlpha"/>
<feOffset dx="2" dy="2"/>
<feGaussianBlur stdDeviation="2"/>
<feColorMatrix type="matrix" values="0 0 0 0 0 0 0 0 0 0 0 0 0 0 0 0 0 0 0.25 0"/>
<feBlend mode="normal" in2="BackgroundImageFix" result="effect1_dropShadow_1_23"/>
<feBlend mode="normal" in="SourceGraphic" in2="effect1_dropShadow_1_23" result="shape"/>
</filter>
</defs>
</svg>
