<svg width="110" height="92" viewBox="0 0 110 92" fill="none" xmlns="http://www.w3.org/2000/svg">
<g filter="url(#filter0_d_1_62)">
<path d="M41.7708 59.3991C41.7708 63.8523 39.5 71.1392 34.125 71.1392C28.75 71.1392 26.4792 63.8523 26.4792 59.3991C26.4792 54.946 28.75 47.6591 34.125 47.6591C39.5 47.6591 41.7708 54.946 41.7708 59.3991ZM103 48.6392C103 55.4361 102.333 62.6378 99.3542 68.8807C91.4583 85.2017 69.75 84.8182 54.2083 84.8182C38.4167 84.8182 15.4167 85.3935 7.20833 68.8807C4.16667 62.7017 3 55.4361 3 48.6392C3 39.7116 5.89583 31.2741 11.6458 24.4347C10.5625 21.0682 10.0417 17.5312 10.0417 14.0369C10.0417 9.45597 11.0625 7.15483 13.0833 3C22.5208 3 28.5625 4.91761 35.75 10.6705C41.7917 9.20028 48 8.53977 54.2292 8.53977C59.8542 8.53977 65.5208 9.15767 70.9792 10.5C78.0625 4.81108 84.1042 3 93.4375 3C95.4792 7.15483 96.4792 9.45597 96.4792 14.0369C96.4792 17.5312 95.9375 21.0043 94.875 24.3068C100.604 31.2102 103 39.7116 103 48.6392ZM89.6042 59.3991C89.6042 50.0455 84.0417 41.7997 74.2917 41.7997C70.3542 41.7997 66.5833 42.5241 62.625 43.0781C59.5208 43.5682 56.4167 43.7599 53.2292 43.7599C50.0625 43.7599 46.9583 43.5682 43.8333 43.0781C39.9375 42.5241 36.125 41.7997 32.1667 41.7997C22.4167 41.7997 16.8542 50.0455 16.8542 59.3991C16.8542 78.1065 33.6042 80.9829 48.1875 80.9829H58.2292C72.875 80.9829 89.6042 78.1278 89.6042 59.3991ZM72.3958 47.6591C67.0208 47.6591 64.75 54.946 64.75 59.3991C64.75 63.8523 67.0208 71.1392 72.3958 71.1392C77.7708 71.1392 80.0417 63.8523 80.0417 59.3991C80.0417 54.946 77.7708 47.6591 72.3958 47.6591Z" fill="#CDD5E0"/>
<path d="M99.8043 69.0984L99.8054 69.096C102.833 62.7508 103.5 55.4583 103.5 48.6392C103.5 39.7124 101.127 31.1724 95.4338 24.1989C96.4577 20.9247 96.9792 17.4908 96.9792 14.0369C96.9792 9.34085 95.9389 6.95678 93.8862 2.77949L93.7489 2.5H93.4375C88.7391 2.5 84.8386 2.95566 81.2093 4.14138C77.6426 5.30664 74.3636 7.16849 70.8589 9.95603C65.4317 8.64366 59.8081 8.03977 54.2292 8.03977C48.0467 8.03977 41.8797 8.68676 35.8703 10.127C32.3162 7.30794 29.0118 5.40366 25.4188 4.20366C21.7631 2.98271 17.8358 2.5 13.0833 2.5H12.7705L12.6337 2.78131C10.6036 6.95526 9.54167 9.33995 9.54167 14.0369C9.54167 17.4895 10.043 20.9852 11.0864 24.3246C5.37374 31.2214 2.5 39.6927 2.5 48.6392C2.5 55.4863 3.67428 62.8336 6.75974 69.1015L6.7606 69.1032C10.9603 77.5519 18.9349 81.5939 27.7574 83.5301C36.0006 85.3392 45.0699 85.3284 52.6539 85.3194C53.1795 85.3188 53.6978 85.3182 54.2083 85.3182C54.5594 85.3182 54.9139 85.3184 55.2714 85.3186C62.8096 85.3229 71.7191 85.328 79.7617 83.4568C88.198 81.4941 95.7653 77.4471 99.8043 69.0984ZM34.125 71.6392C37.0801 71.6392 39.1267 69.6266 40.4069 67.1702C41.689 64.7103 42.2708 61.6939 42.2708 59.3991C42.2708 57.1044 41.689 54.088 40.4069 51.6281C39.1267 49.1717 37.0801 47.1591 34.125 47.1591C31.1699 47.1591 29.1233 49.1717 27.8431 51.6281C26.561 54.088 25.9792 57.1044 25.9792 59.3991C25.9792 61.6939 26.561 64.7103 27.8431 67.1702C29.1233 69.6266 31.1699 71.6392 34.125 71.6392ZM74.2917 42.2997C79.0109 42.2997 82.6977 44.2891 85.2152 47.406C87.7409 50.5331 89.1042 54.8164 89.1042 59.3991C89.1042 64.0049 88.0765 67.6002 86.3363 70.4095C84.596 73.219 82.1232 75.2745 79.1824 76.7685C73.2809 79.7667 65.539 80.4829 58.2292 80.4829H48.1875C40.9095 80.4829 33.1778 79.7615 27.2788 76.7607C24.3391 75.2652 21.8655 73.209 20.1242 70.4003C18.3831 67.592 17.3542 63.9994 17.3542 59.3991C17.3542 54.8164 18.7174 50.5331 21.2431 47.406C23.7606 44.2891 27.4475 42.2997 32.1667 42.2997C35.3041 42.2997 38.3423 42.7597 41.448 43.2298C42.2136 43.3457 42.9834 43.4623 43.7597 43.5727C46.914 44.0671 50.0435 44.2599 53.2292 44.2599C56.4353 44.2599 59.5649 44.0672 62.6987 43.5727C63.5384 43.4551 64.3659 43.3307 65.1853 43.2074C68.2593 42.7451 71.2203 42.2997 74.2917 42.2997ZM72.3958 47.1591C69.4408 47.1591 67.3942 49.1717 66.1139 51.6281C64.8318 54.088 64.25 57.1044 64.25 59.3991C64.25 61.6939 64.8318 64.7103 66.1139 67.1702C67.3942 69.6266 69.4408 71.6392 72.3958 71.6392C75.3509 71.6392 77.3975 69.6266 78.6778 67.1702C79.9598 64.7103 80.5417 61.6939 80.5417 59.3991C80.5417 57.1044 79.9598 54.088 78.6778 51.6281C77.3975 49.1717 75.3509 47.1591 72.3958 47.1591Z" stroke="white" stroke-opacity="0.5"/>
</g>
<defs>
<filter id="filter0_d_1_62" x="0" y="0" width="110" height="91.8208" filterUnits="userSpaceOnUse" color-interpolation-filters="sRGB">
<feFlood flood-opacity="0" result="BackgroundImageFix"/>
<feColorMatrix in="SourceAlpha" type="matrix" values="0 0 0 0 0 0 0 0 0 0 0 0 0 0 0 0 0 0 127 0" result="hardAlpha"/>
<feOffset dx="2" dy="2"/>
<feGaussianBlur stdDeviation="2"/>
<feColorMatrix type="matrix" values="0 0 0 0 0 0 0 0 0 0 0 0 0 0 0 0 0 0 0.25 0"/>
<feBlend mode="normal" in2="BackgroundImageFix" result="effect1_dropShadow_1_62"/>
<feBlend mode="normal" in="SourceGraphic" in2="effect1_dropShadow_1_62" result="shape"/>
</filter>
</defs>
</svg>
