<svg width="48" height="48" viewBox="0 0 48 48" fill="none" xmlns="http://www.w3.org/2000/svg">
<path d="M23.5 32C27.6421 32 31 28.6421 31 24.5C31 20.3579 27.6421 17 23.5 17C19.3579 17 16 20.3579 16 24.5C16 28.6421 19.3579 32 23.5 32Z" stroke="white" stroke-width="2" stroke-miterlimit="10"/>
<path d="M32.25 6.75H15.75C10.7794 6.75 6.75 10.7794 6.75 15.75V32.25C6.75 37.2205 10.7794 41.25 15.75 41.25H32.25C37.2205 41.25 41.25 37.2205 41.25 32.25V15.75C41.25 10.7794 37.2205 6.75 32.25 6.75Z" stroke="white" stroke-width="2" stroke-linecap="round" stroke-linejoin="round"/>
<path d="M33.75 16.5C34.9926 16.5 36 15.4926 36 14.25C36 13.0074 34.9926 12 33.75 12C32.5074 12 31.5 13.0074 31.5 14.25C31.5 15.4926 32.5074 16.5 33.75 16.5Z" fill="white"/>
</svg>
