<svg width="48" height="48" viewBox="0 0 48 48" fill="none" xmlns="http://www.w3.org/2000/svg">
<path d="M39.75 6.75H8.25C7.42158 6.75 6.75 7.42158 6.75 8.25V39.75C6.75 40.5784 7.42158 41.25 8.25 41.25H39.75C40.5784 41.25 41.25 40.5784 41.25 39.75V8.25C41.25 7.42158 40.5784 6.75 39.75 6.75Z" stroke="white" stroke-width="2" stroke-linecap="round" stroke-linejoin="round"/>
<path d="M22.5 21V33" stroke="white" stroke-width="2" stroke-linecap="round" stroke-linejoin="round"/>
<path d="M16.5 21V33" stroke="white" stroke-width="2" stroke-linecap="round" stroke-linejoin="round"/>
<path d="M22.5 26.25C22.5 24.8575 23.0531 23.5222 24.0377 22.5376C25.0223 21.553 26.3575 21 27.75 21C29.1425 21 30.4777 21.553 31.4623 22.5376C32.4469 23.5222 33 24.8575 33 26.25V33" stroke="white" stroke-width="2" stroke-linecap="round" stroke-linejoin="round"/>
<path d="M16.5 17.25C17.7426 17.25 18.75 16.2426 18.75 15C18.75 13.7574 17.7426 12.75 16.5 12.75C15.2574 12.75 14.25 13.7574 14.25 15C14.25 16.2426 15.2574 17.25 16.5 17.25Z" fill="white"/>
</svg>
