<svg width="48" height="48" viewBox="0 0 48 48" fill="none" xmlns="http://www.w3.org/2000/svg">
<path d="M6 10C6 8.11438 6 7.17157 6.58579 6.58579C7.17157 6 8.11438 6 10 6H38C39.8856 6 40.8284 6 41.4142 6.58579C42 7.17157 42 8.11438 42 10V38C42 39.8856 42 40.8284 41.4142 41.4142C40.8284 42 39.8856 42 38 42H10C8.11438 42 7.17157 42 6.58579 41.4142C6 40.8284 6 39.8856 6 38V10Z" stroke="white" stroke-width="2"/>
<path d="M6 20V22C6 23.8856 6 24.8284 6.58579 25.4142C7.17157 26 8.11438 26 10 26H14.5585C15.2542 26 15.6021 26 15.864 26.1888C16.1258 26.3775 16.2358 26.7075 16.4558 27.3675L17.5442 30.6325C17.7642 31.2925 17.8742 31.6225 18.136 31.8112C18.3979 32 18.7458 32 19.4415 32H28.5585C29.2542 32 29.6021 32 29.864 31.8112C30.1258 31.6225 30.2358 31.2925 30.4558 30.6325L31.5442 27.3675C31.7642 26.7075 31.8742 26.3775 32.136 26.1888C32.3979 26 32.7458 26 33.4415 26H38C39.8856 26 40.8284 26 41.4142 25.4142C42 24.8284 42 23.8856 42 22V20" stroke="white" stroke-width="2"/>
</svg>
